<svg width="24" height="24" viewBox="0 0 24 24" fill="none" xmlns="http://www.w3.org/2000/svg">
<path d="M4.5 6C4.5 5.86739 4.55268 5.74021 4.64645 5.64645C4.74021 5.55268 4.86739 5.5 5 5.5H19C19.1326 5.5 19.2598 5.55268 19.3536 5.64645C19.4473 5.74021 19.5 5.86739 19.5 6C19.5 6.13261 19.4473 6.25979 19.3536 6.35355C19.2598 6.44732 19.1326 6.5 19 6.5H5C4.86739 6.5 4.74021 6.44732 4.64645 6.35355C4.55268 6.25979 4.5 6.13261 4.5 6ZM4.5 12C4.5 11.8674 4.55268 11.7402 4.64645 11.6464C4.74021 11.5527 4.86739 11.5 5 11.5H19C19.1326 11.5 19.2598 11.5527 19.3536 11.6464C19.4473 11.7402 19.5 11.8674 19.5 12C19.5 12.1326 19.4473 12.2598 19.3536 12.3536C19.2598 12.4473 19.1326 12.5 19 12.5H5C4.86739 12.5 4.74021 12.4473 4.64645 12.3536C4.55268 12.2598 4.5 12.1326 4.5 12ZM5 17.5C4.86739 17.5 4.74021 17.5527 4.64645 17.6464C4.55268 17.7402 4.5 17.8674 4.5 18C4.5 18.1326 4.55268 18.2598 4.64645 18.3536C4.74021 18.4473 4.86739 18.5 5 18.5H19C19.1326 18.5 19.2598 18.4473 19.3536 18.3536C19.4473 18.2598 19.5 18.1326 19.5 18C19.5 17.8674 19.4473 17.7402 19.3536 17.6464C19.2598 17.5527 19.1326 17.5 19 17.5H5Z" fill="black"/>
</svg>
